<?xml version="1.0" encoding="utf-8"?>
<!-- Generator: Adobe Illustrator 13.0.0, SVG Export Plug-In . SVG Version: 6.00 Build 14948)  -->
<!DOCTYPE svg PUBLIC "-//W3C//DTD SVG 1.1//EN" "http://www.w3.org/Graphics/SVG/1.1/DTD/svg11.dtd">
<svg version="1.1" id="Layer_1" xmlns="http://www.w3.org/2000/svg" xmlns:xlink="http://www.w3.org/1999/xlink" x="0px" y="0px"
	 width="500.736px" height="509.412px" viewBox="0 0 500.736 509.412" enable-background="new 0 0 500.736 509.412"
	 xml:space="preserve">
<g id="XMLID_1_">
	<g>
		<path d="M289.307,176.336h129.786c9.086,0,16.472,7.385,16.472,16.472v73.215c0,9.105-7.386,16.472-16.472,16.472H289.307
			c-9.096,0-16.472-7.366-16.472-16.472v-73.215C272.835,183.722,280.211,176.336,289.307,176.336z M302.673,187.582
			c-9.2,0-16.662,7.452-16.662,16.653c0,9.21,7.462,16.663,16.662,16.663c9.191,0,16.653-7.453,16.653-16.663
			C319.326,195.034,311.864,187.582,302.673,187.582z"/>
		<path fill="#FFFFFF" d="M286.011,204.235c0-9.201,7.462-16.653,16.662-16.653c9.191,0,16.653,7.452,16.653,16.653
			c0,9.21-7.462,16.663-16.653,16.663C293.473,220.898,286.011,213.445,286.011,204.235z"/>
		<path fill="#4285D3" d="M419.093,176.336H289.307c-9.096,0-16.472,7.385-16.472,16.472v73.215c0,9.105,7.376,16.472,16.472,16.472
			h129.786c9.086,0,16.472-7.366,16.472-16.472v-73.215C435.564,183.722,428.179,176.336,419.093,176.336z M31.942,446.59V97.227
			c0-56.714,66.747-66.747,66.747-66.747h348.179c6.43,11.704,10.108,28.396,10.108,28.396s0,290.451,0,333.924
			c-14.81,50.16-62.581,62.581-62.581,62.581s-293.317,0-329.624,0c-15.01,0-25.586-4.042-32.838-8.78L31.942,446.59z
			 M217.334,266.023v-73.215c0-9.086-7.385-16.472-16.481-16.472H71.076c-9.105,0-16.472,7.385-16.472,16.472v73.215
			c0,9.105,7.367,16.472,16.472,16.472h129.776C209.949,282.495,217.334,275.128,217.334,266.023z"/>
		<path d="M100.704,204.235c0-9.201-7.452-16.653-16.653-16.653c-9.21,0-16.663,7.452-16.663,16.653
			c0,9.21,7.453,16.663,16.663,16.663C93.252,220.898,100.704,213.445,100.704,204.235z M71.076,176.336h129.776
			c9.096,0,16.481,7.385,16.481,16.472v73.215c0,9.105-7.385,16.472-16.481,16.472H71.076c-9.105,0-16.472-7.366-16.472-16.472
			v-73.215C54.604,183.722,61.971,176.336,71.076,176.336z"/>
		<path fill="#FFFFFF" d="M100.704,204.235c0,9.21-7.452,16.663-16.653,16.663c-9.21,0-16.663-7.453-16.663-16.663
			c0-9.201,7.453-16.653,16.663-16.653C93.252,187.582,100.704,195.034,100.704,204.235z"/>
		<path fill="#3868AA" d="M18.098,431.781c0.249,0.545,3.917,8.341,13.834,14.819c7.252,4.738,17.829,8.78,32.838,8.78
			c36.307,0,329.624,0,329.624,0s47.771-12.421,62.581-62.581c0-43.473,0-333.924,0-333.924s-3.679-16.691-10.108-28.396
			c-1.634-2.971-3.449-5.627-5.417-7.605c8.178,3.516,15.545,8.618,21.765,14.934c12.392,12.631,20.063,30.029,20.073,49.358
			v335.089c-0.01,19.318-7.682,36.717-20.073,49.348c-12.411,12.612-29.408,20.36-48.259,20.36H85.78
			c-18.851,0-35.857-7.748-48.259-20.36C27.203,461.093,20.171,447.268,18.098,431.781z"/>
		<path fill="#192653" d="M500.486,87.166v335.089c0,23.924-9.555,45.679-25.004,61.396c-15.431,15.726-36.88,25.51-60.508,25.51
			c-0.01,0-0.019,0-0.019,0H85.78c-23.637,0.01-45.096-9.774-60.536-25.51C9.795,467.934,0.25,446.179,0.25,422.255V87.166
			c0-23.934,9.545-45.689,24.994-61.406C40.684,10.034,62.143,0.241,85.78,0.25h329.176c23.628-0.009,45.096,9.784,60.526,25.51
			C490.932,41.477,500.486,63.232,500.486,87.166z M483.288,422.255V87.166c-0.01-19.329-7.682-36.727-20.073-49.358
			c-6.22-6.315-13.587-11.417-21.765-14.934c-8.15-3.497-17.093-5.427-26.494-5.427H85.78c-18.851,0-35.857,7.749-48.259,20.36
			C25.12,50.439,17.448,67.837,17.448,87.166v335.089c0,3.239,0.239,6.411,0.65,9.525c2.073,15.487,9.105,29.313,19.424,39.822
			c12.401,12.612,29.408,20.36,48.259,20.36h329.176c18.851,0,35.848-7.748,48.259-20.36
			C475.606,458.972,483.278,441.574,483.288,422.255z"/>
		<path fill="#7BA1D2" d="M446.867,30.48H98.688c0,0-66.747,10.032-66.747,66.747V446.59l-0.01,0.01
			c-9.917-6.479-13.586-14.274-13.834-14.819c-0.411-3.114-0.65-6.286-0.65-9.525V87.166c0-19.329,7.672-36.727,20.074-49.358
			c12.401-12.612,29.408-20.36,48.259-20.36h329.176c9.401,0,18.344,1.93,26.494,5.427C443.418,24.853,445.233,27.509,446.867,30.48
			z"/>
	</g>
	<g>
	</g>
</g>
</svg>
